<svg width="23" height="18" viewBox="0 0 23 18" fill="none" xmlns="http://www.w3.org/2000/svg">
<path d="M7.25688 17.6667C6.76977 17.6667 6.32122 17.5496 5.91122 17.3153C5.50144 17.0811 5.15666 16.7658 4.87688 16.3693L0.515217 10.2163C0.258328 9.84656 0.129883 9.44189 0.129883 9.00233C0.129883 8.56256 0.258328 8.15633 0.515217 7.78367L4.87688 1.65633C5.15666 1.25989 5.50111 0.940221 5.91022 0.697332C6.31933 0.454666 6.76799 0.333333 7.25622 0.333333H20.2479C20.819 0.333333 21.3093 0.538111 21.7189 0.947666C22.1284 1.35722 22.3332 1.84756 22.3332 2.41867V15.5813C22.3332 16.1524 22.1284 16.6428 21.7189 17.0523C21.3093 17.4619 20.819 17.6667 20.2479 17.6667H7.25688ZM7.08022 15.9913H20.2479C20.3503 15.9913 20.4443 15.9487 20.5299 15.8633C20.6152 15.7778 20.6579 15.6838 20.6579 15.5813V2.41867C20.6579 2.31622 20.6152 2.22222 20.5299 2.13667C20.4443 2.05133 20.3503 2.00867 20.2479 2.00867H7.08155C6.95333 2.00867 6.83144 2.04067 6.71588 2.10467C6.60055 2.16889 6.50866 2.248 6.44022 2.342L1.90488 8.75633C1.85377 8.82478 1.82822 8.906 1.82822 9C1.82822 9.094 1.85377 9.17522 1.90488 9.24367L6.43922 15.658C6.50766 15.752 6.59955 15.8311 6.71488 15.8953C6.83022 15.9593 6.95199 15.9913 7.08022 15.9913ZM13.4359 10.1793L16.4479 13.183C16.6086 13.3437 16.8015 13.4261 17.0269 13.4303C17.2522 13.4346 17.4494 13.3521 17.6186 13.183C17.7879 13.0137 17.8726 12.8148 17.8726 12.5863C17.8726 12.3579 17.7879 12.159 17.6186 11.9897L14.6152 9L17.6049 6.01033C17.7656 5.84967 17.8481 5.65522 17.8526 5.427C17.8568 5.19878 17.7742 5 17.6049 4.83067C17.4358 4.66155 17.237 4.577 17.0086 4.577C16.7799 4.577 16.581 4.66155 16.4119 4.83067L13.4359 7.82067L10.4322 4.817C10.2649 4.65633 10.0688 4.57389 9.84388 4.56967C9.61899 4.56545 9.42199 4.64789 9.25288 4.817C9.08355 4.98633 8.99888 5.18522 8.99888 5.41367C8.99888 5.64211 9.08355 5.841 9.25288 6.01033L12.2562 9L9.25288 11.9897C9.09222 12.1503 9.00977 12.3448 9.00555 12.573C9.00111 12.8012 9.08355 13 9.25288 13.1693C9.42199 13.3384 9.62088 13.423 9.84955 13.423C10.078 13.423 10.2768 13.3384 10.4459 13.1693L13.4359 10.1793Z" fill="#5E5E5E"/>
</svg>
