<svg width="29" height="30" viewBox="0 0 29 30" fill="none" xmlns="http://www.w3.org/2000/svg">
<path d="M26.8389 29.1667C23.8217 29.1667 20.7385 28.4261 17.5893 26.945C14.4402 25.4639 11.5147 23.3725 8.81308 20.6708C6.12225 17.9695 4.03627 15.0468 2.55516 11.9029C1.07405 8.75904 0.333496 5.67848 0.333496 2.66126C0.333496 2.14987 0.507663 1.71737 0.855996 1.36376C1.20433 1.01015 1.63419 0.833344 2.14558 0.833344H7.13058C7.55864 0.833344 7.926 0.973484 8.23266 1.25376C8.53905 1.53404 8.74752 1.89112 8.85808 2.32501L9.841 6.94668C9.90016 7.37195 9.88558 7.75084 9.79725 8.08334C9.70891 8.41584 9.54641 8.6932 9.30975 8.91543L5.3985 12.7242C6.101 13.9531 6.86044 15.0986 7.67683 16.1608C8.4935 17.2231 9.37697 18.2261 10.3272 19.17C11.3242 20.1856 12.3847 21.1175 13.5089 21.9658C14.6328 22.8142 15.8389 23.5908 17.1272 24.2958L20.8956 20.4446C21.1675 20.1504 21.4786 19.9499 21.8289 19.8429C22.1789 19.7363 22.5479 19.7107 22.936 19.7663L27.1752 20.6742C27.6146 20.7781 27.9731 20.9996 28.2506 21.3388C28.5281 21.6777 28.6668 22.064 28.6668 22.4979V27.3546C28.6668 27.866 28.49 28.2958 28.1364 28.6442C27.7828 28.9925 27.3503 29.1667 26.8389 29.1667Z" fill="#232323"/>
</svg>
