<svg width="23" height="22" viewBox="0 0 23 22" fill="none" xmlns="http://www.w3.org/2000/svg">
<path d="M21.6249 16.9204C21.6349 17.4004 21.3749 18.5004 21.1749 18.9404C20.6749 20.0804 18.0949 21.3104 16.7049 21.2204C15.4349 21.2504 14.0549 20.6304 12.9049 20.2204C8.29485 18.4204 3.99486 14.1304 2.21486 9.51038C1.80486 8.35038 1.17486 6.98038 1.20486 5.71038C1.11486 4.33038 2.34485 1.74038 3.48485 1.25038C4.04485 1.03038 5.21485 0.680381 5.80485 0.840381C5.97485 0.900381 6.23485 1.27038 6.57485 1.94038C6.98485 2.66038 7.52486 3.70038 7.96486 4.42038C8.16486 4.72038 8.65485 5.30038 8.63485 5.71038C8.42485 6.67038 7.06485 7.29038 6.42485 8.00038C5.62485 8.64038 6.22485 9.29038 6.57485 9.91038C8.06485 12.5804 9.83486 14.3504 12.5049 15.8404C13.1249 16.1904 13.7849 16.7904 14.4149 15.9904C15.1249 15.3504 15.7449 13.9904 16.7049 13.7804C17.1049 13.7604 17.6949 14.2504 17.9949 14.4504C18.7149 14.8904 19.7549 15.4304 20.4749 15.8404C21.1549 16.1804 21.5149 16.4304 21.5749 16.6104C21.6049 16.6804 21.6149 16.7804 21.6149 16.9104L21.6249 16.9204Z" stroke="#A5A5A5" stroke-width="1.5" stroke-linecap="round" stroke-linejoin="round"/>
</svg>
