<svg width="27" height="26" viewBox="0 0 27 26" fill="none" xmlns="http://www.w3.org/2000/svg">
<path d="M5.3325 20.395C6.59805 19.5026 7.89283 18.8068 9.21683 18.3077C10.5408 17.8086 11.9686 17.559 13.5002 17.559C15.0317 17.559 16.4617 17.8086 17.7902 18.3077C19.1188 18.8068 20.4159 19.5026 21.6815 20.395C22.6039 19.3426 23.3029 18.2005 23.7785 16.9687C24.2538 15.7367 24.4915 14.4138 24.4915 13C24.4915 9.91801 23.4302 7.31557 21.3075 5.19268C19.1846 3.07001 16.5822 2.00868 13.5002 2.00868C10.4182 2.00868 7.81572 3.07001 5.69283 5.19268C3.57016 7.31557 2.50883 9.91801 2.50883 13C2.50883 14.4138 2.74883 15.7367 3.22883 16.9687C3.70883 18.2005 4.41005 19.3426 5.3325 20.395ZM13.4955 13.8377C12.2906 13.8377 11.2762 13.4241 10.4522 12.597C9.62839 11.7699 9.2165 10.7539 9.2165 9.54901C9.2165 8.34434 9.63005 7.33001 10.4572 6.50601C11.2841 5.68201 12.2999 5.27001 13.5048 5.27001C14.7097 5.27001 15.7242 5.68357 16.5482 6.51068C17.3719 7.33779 17.7838 8.35379 17.7838 9.55868C17.7838 10.7633 17.3703 11.7777 16.5432 12.6017C15.7163 13.4257 14.7004 13.8377 13.4955 13.8377ZM13.5105 25.6667C11.7538 25.6667 10.1057 25.3359 8.56616 24.6743C7.02683 24.0128 5.68405 23.1082 4.53783 21.9607C3.39139 20.8131 2.48739 19.472 1.82583 17.9373C1.16427 16.4027 0.833496 14.7563 0.833496 12.9983C0.833496 11.2406 1.16427 9.59479 1.82583 8.06101C2.48739 6.52746 3.39194 5.1869 4.5395 4.03934C5.68705 2.89179 7.02816 1.98723 8.56283 1.32568C10.0975 0.664122 11.7438 0.333344 13.5018 0.333344C15.2596 0.333344 16.9054 0.664122 18.4392 1.32568C19.9727 1.98723 21.3133 2.89179 22.4608 4.03934C23.6084 5.1869 24.5129 6.52779 25.1745 8.06201C25.8361 9.59601 26.1668 11.2386 26.1668 12.9897C26.1668 14.7463 25.8361 16.3945 25.1745 17.934C24.5129 19.4733 23.6084 20.8161 22.4608 21.9623C21.3133 23.1088 19.9724 24.0128 18.4382 24.6743C16.9042 25.3359 15.2616 25.6667 13.5105 25.6667ZM13.5002 23.9913C14.7275 23.9913 15.9291 23.7956 17.1048 23.404C18.2806 23.0122 19.3679 22.4069 20.3668 21.588C19.3679 20.8427 18.2897 20.264 17.1322 19.852C15.9746 19.44 14.7639 19.234 13.5002 19.234C12.2364 19.234 11.0236 19.4379 9.86183 19.8457C8.69983 20.2535 7.62661 20.8342 6.64216 21.588C7.63527 22.4069 8.71972 23.0122 9.8955 23.404C11.0713 23.7956 12.2728 23.9913 13.5002 23.9913ZM13.5015 12.1623C14.2539 12.1623 14.8766 11.9156 15.3695 11.422C15.8624 10.9282 16.1088 10.3051 16.1088 9.55268C16.1088 8.80023 15.8619 8.17757 15.3682 7.68468C14.8746 7.19179 14.2515 6.94534 13.4988 6.94534C12.7464 6.94534 12.1237 7.19212 11.6308 7.68568C11.1379 8.17946 10.8915 8.80257 10.8915 9.55501C10.8915 10.3075 11.1384 10.9301 11.6322 11.423C12.1257 11.9159 12.7488 12.1623 13.5015 12.1623Z" fill="#5F6368"/>
</svg>
