<svg width="23" height="30" viewBox="0 0 23 30" fill="none" xmlns="http://www.w3.org/2000/svg">
<path d="M11.4982 29.6667C10.8255 29.6667 10.2503 29.4272 9.7725 28.948C9.29472 28.4689 9.05583 27.893 9.05583 27.2204C9.05583 26.5475 9.29539 25.9722 9.7745 25.4944C10.2534 25.0166 10.8293 24.7777 11.5022 24.7777C12.1748 24.7777 12.7501 25.0173 13.2278 25.4964C13.7056 25.9755 13.9445 26.5515 13.9445 27.2244C13.9445 27.897 13.7049 28.4723 13.2258 28.95C12.7469 29.4278 12.1711 29.6667 11.4982 29.6667ZM3.27583 5.22237C2.60316 5.22237 2.02794 4.98282 1.55016 4.50371C1.07239 4.0246 0.833496 3.4486 0.833496 2.77571C0.833496 2.10304 1.07305 1.52782 1.55216 1.05004C2.03127 0.572263 2.60716 0.333374 3.27983 0.333374C3.95272 0.333374 4.52805 0.57293 5.00583 1.05204C5.48361 1.53115 5.7225 2.10704 5.7225 2.77971C5.7225 3.4526 5.48294 4.02793 5.00383 4.50571C4.52472 4.98348 3.94872 5.22237 3.27583 5.22237ZM3.27583 13.3557C2.60316 13.3557 2.02794 13.1162 1.55016 12.637C1.07239 12.1579 0.833496 11.5819 0.833496 10.909C0.833496 10.2364 1.07305 9.66115 1.55216 9.18337C2.03127 8.7056 2.60716 8.46671 3.27983 8.46671C3.95272 8.46671 4.52805 8.70626 5.00583 9.18537C5.48361 9.66449 5.7225 10.2404 5.7225 10.913C5.7225 11.5859 5.48294 12.1613 5.00383 12.639C4.52472 13.1168 3.94872 13.3557 3.27583 13.3557ZM3.27583 21.511C2.60316 21.511 2.02794 21.2715 1.55016 20.7924C1.07239 20.3135 0.833496 19.7376 0.833496 19.0647C0.833496 18.392 1.07305 17.8168 1.55216 17.339C2.03127 16.8613 2.60716 16.6224 3.27983 16.6224C3.95272 16.6224 4.52805 16.8619 5.00583 17.341C5.48361 17.8199 5.7225 18.3958 5.7225 19.0687C5.7225 19.7414 5.48294 20.3166 5.00383 20.7944C4.52472 21.2722 3.94872 21.511 3.27583 21.511ZM19.7205 5.22237C19.0476 5.22237 18.4723 4.98282 17.9945 4.50371C17.5167 4.0246 17.2778 3.4486 17.2778 2.77571C17.2778 2.10304 17.5174 1.52782 17.9965 1.05004C18.4756 0.572263 19.0516 0.333374 19.7245 0.333374C20.3972 0.333374 20.9724 0.57293 21.4502 1.05204C21.9279 1.53115 22.1668 2.10704 22.1668 2.77971C22.1668 3.4526 21.9273 4.02793 21.4482 4.50571C20.9691 4.98348 20.3932 5.22237 19.7205 5.22237ZM11.4982 21.511C10.8255 21.511 10.2503 21.2715 9.7725 20.7924C9.29472 20.3135 9.05583 19.7376 9.05583 19.0647C9.05583 18.392 9.29539 17.8168 9.7745 17.339C10.2534 16.8613 10.8293 16.6224 11.5022 16.6224C12.1748 16.6224 12.7501 16.8619 13.2278 17.341C13.7056 17.8199 13.9445 18.3958 13.9445 19.0687C13.9445 19.7414 13.7049 20.3166 13.2258 20.7944C12.7469 21.2722 12.1711 21.511 11.4982 21.511ZM19.7205 21.511C19.0476 21.511 18.4723 21.2715 17.9945 20.7924C17.5167 20.3135 17.2778 19.7376 17.2778 19.0647C17.2778 18.392 17.5174 17.8168 17.9965 17.339C18.4756 16.8613 19.0516 16.6224 19.7245 16.6224C20.3972 16.6224 20.9724 16.8619 21.4502 17.341C21.9279 17.8199 22.1668 18.3958 22.1668 19.0687C22.1668 19.7414 21.9273 20.3166 21.4482 20.7944C20.9691 21.2722 20.3932 21.511 19.7205 21.511ZM19.7205 13.3557C19.0476 13.3557 18.4723 13.1162 17.9945 12.637C17.5167 12.1579 17.2778 11.5819 17.2778 10.909C17.2778 10.2364 17.5174 9.66115 17.9965 9.18337C18.4756 8.7056 19.0516 8.46671 19.7245 8.46671C20.3972 8.46671 20.9724 8.70626 21.4502 9.18537C21.9279 9.66449 22.1668 10.2404 22.1668 10.913C22.1668 11.5859 21.9273 12.1613 21.4482 12.639C20.9691 13.1168 20.3932 13.3557 19.7205 13.3557ZM11.4982 13.3557C10.8255 13.3557 10.2503 13.1162 9.7725 12.637C9.29472 12.1579 9.05583 11.5819 9.05583 10.909C9.05583 10.2364 9.29539 9.66115 9.7745 9.18337C10.2534 8.7056 10.8293 8.46671 11.5022 8.46671C12.1748 8.46671 12.7501 8.70626 13.2278 9.18537C13.7056 9.66449 13.9445 10.2404 13.9445 10.913C13.9445 11.5859 13.7049 12.1613 13.2258 12.639C12.7469 13.1168 12.1711 13.3557 11.4982 13.3557ZM11.4982 5.22237C10.8255 5.22237 10.2503 4.98282 9.7725 4.50371C9.29472 4.0246 9.05583 3.4486 9.05583 2.77571C9.05583 2.10304 9.29539 1.52782 9.7745 1.05004C10.2534 0.572263 10.8293 0.333374 11.5022 0.333374C12.1748 0.333374 12.7501 0.57293 13.2278 1.05204C13.7056 1.53115 13.9445 2.10704 13.9445 2.77971C13.9445 3.4526 13.7049 4.02793 13.2258 4.50571C12.7469 4.98348 12.1711 5.22237 11.4982 5.22237Z" fill="#5E5E5E"/>
</svg>
