<svg width="37" height="15" viewBox="0 0 37 15" fill="none" xmlns="http://www.w3.org/2000/svg">
<path d="M18.5 0.75C21.7942 0.75 24.9899 1.40722 28.0871 2.72167C31.1843 4.03614 33.8508 5.91522 36.0865 8.35892C36.3707 8.67303 36.5201 9.03397 36.5347 9.44175C36.5493 9.8495 36.4053 10.1994 36.1026 10.4914L32.8814 13.6634C32.5851 13.9561 32.223 14.1199 31.7949 14.1548C31.3669 14.1897 30.9997 14.0918 30.6934 13.861L26.5353 10.7371C26.2896 10.5462 26.1062 10.3351 25.9851 10.1036C25.864 9.87208 25.8035 9.61674 25.8035 9.33754V4.1335C24.5456 3.67267 23.3216 3.34253 22.1314 3.14308C20.9413 2.94367 19.7308 2.84396 18.5 2.84396C17.2693 2.84396 16.0588 2.94367 14.8686 3.14308C13.6784 3.34253 12.4544 3.67267 11.1966 4.1335V9.33754C11.1966 9.61674 11.136 9.87208 11.0149 10.1036C10.8939 10.3351 10.7105 10.5462 10.4647 10.7371L6.31736 13.861C5.96264 14.1217 5.58728 14.2328 5.19128 14.1944C4.79525 14.1559 4.4377 13.9789 4.11861 13.6634L0.897531 10.4914C0.594809 10.1994 0.450753 9.8495 0.465365 9.44175C0.479948 9.03397 0.629337 8.67303 0.913531 8.35892C3.14359 5.91522 5.80864 4.03614 8.9087 2.72167C12.0088 1.40722 15.2059 0.75 18.5 0.75Z" fill="white"/>
</svg>
