<svg width="10" height="6" viewBox="0 0 10 6" fill="none" xmlns="http://www.w3.org/2000/svg">
<path d="M4.99595 5.75002C4.89595 5.75002 4.8022 5.73266 4.7147 5.69794C4.6272 5.66322 4.54873 5.61113 4.47928 5.54169L0.52799 1.5904C0.370517 1.43292 0.295253 1.25349 0.302198 1.0521C0.309142 0.850715 0.389003 0.673631 0.541781 0.520854C0.694559 0.368076 0.871642 0.291687 1.07303 0.291687C1.27442 0.291687 1.4515 0.368076 1.60428 0.520854L5.00011 3.93752L8.41678 0.520854C8.56956 0.368076 8.74664 0.295159 8.94803 0.302104C9.14942 0.309048 9.3265 0.388909 9.47928 0.541687C9.63206 0.694465 9.70845 0.871548 9.70845 1.07294C9.70845 1.27433 9.62971 1.45337 9.47224 1.61006L5.52095 5.54169C5.44595 5.61113 5.3647 5.66322 5.2772 5.69794C5.1897 5.73266 5.09595 5.75002 4.99595 5.75002Z" fill="#5E5E5E"/>
</svg>
