<svg width="23" height="24" viewBox="0 0 23 24" fill="none" xmlns="http://www.w3.org/2000/svg">
<path d="M11.4248 23.3333C8.57596 23.3333 6.10452 22.4117 4.01052 20.5683C1.91652 18.725 0.677738 16.4153 0.294182 13.6393C0.255516 13.4073 0.30696 13.1991 0.448515 13.0147C0.590071 12.83 0.784627 12.7317 1.03218 12.7197C1.26263 12.7077 1.46118 12.7758 1.62785 12.924C1.79452 13.072 1.90407 13.2689 1.95652 13.5147C2.32296 15.848 3.39407 17.7885 5.16985 19.3363C6.94563 20.8841 9.03063 21.658 11.4248 21.658C14.1333 21.658 16.4283 20.7112 18.3098 18.8177C20.1916 16.9239 21.1325 14.6229 21.1325 11.9147C21.1325 9.23932 20.1871 6.97499 18.2962 5.12166C16.4053 3.26855 14.1148 2.34199 11.4248 2.34199C9.98329 2.34199 8.62663 2.65943 7.35485 3.29432C6.08307 3.92944 4.97374 4.78799 4.02685 5.86999H6.59085C6.83196 5.86999 7.03185 5.94932 7.19052 6.10799C7.34918 6.26666 7.42852 6.46666 7.42852 6.70799C7.42852 6.94932 7.34918 7.14921 7.19052 7.30766C7.03185 7.4661 6.83196 7.54532 6.59085 7.54532H2.21152C1.91218 7.54532 1.66352 7.44632 1.46552 7.24832C1.26752 7.05032 1.16852 6.80166 1.16852 6.50232V2.12832C1.16852 1.89277 1.24796 1.69421 1.40685 1.53266C1.56552 1.37132 1.76552 1.29066 2.00685 1.29066C2.24796 1.29066 2.44774 1.37132 2.60618 1.53266C2.76463 1.69421 2.84385 1.89277 2.84385 2.12832V4.64799C3.93496 3.40399 5.22474 2.42943 6.71318 1.72432C8.20141 1.01921 9.77196 0.666656 11.4248 0.666656C12.9982 0.666656 14.4742 0.961879 15.8528 1.55232C17.2313 2.14255 18.4362 2.94877 19.4675 3.97099C20.4988 4.99321 21.3134 6.18899 21.9112 7.55832C22.509 8.92766 22.8078 10.396 22.8078 11.9633C22.8078 13.5364 22.509 15.0139 21.9112 16.3957C21.3134 17.7774 20.4988 18.9803 19.4675 20.0043C18.4362 21.0281 17.2313 21.8389 15.8528 22.4367C14.4742 23.0344 12.9982 23.3333 11.4248 23.3333ZM12.3642 11.6307L16.2788 15.501C16.4395 15.6672 16.522 15.8668 16.5262 16.0997C16.5304 16.3323 16.448 16.5333 16.2788 16.7027C16.1095 16.8662 15.913 16.948 15.6892 16.948C15.4652 16.948 15.2686 16.8662 15.0995 16.7027L11.0012 12.64C10.8912 12.5302 10.8116 12.4108 10.7625 12.2817C10.7136 12.1528 10.6892 12.0219 10.6892 11.889V6.12132C10.6892 5.88021 10.7685 5.68032 10.9272 5.52166C11.0858 5.36299 11.2858 5.28366 11.5272 5.28366C11.7685 5.28366 11.9683 5.36299 12.1265 5.52166C12.285 5.68032 12.3642 5.88021 12.3642 6.12132V11.6307Z" fill="#5E5E5E"/>
</svg>
