<svg width="20" height="22" viewBox="0 0 20 22" fill="none" xmlns="http://www.w3.org/2000/svg">
<path d="M0.809805 19.6498V8.4198C0.809805 8.1098 0.879805 7.8198 1.0198 7.5398C1.1598 7.2598 1.3498 7.0298 1.5998 6.8498L8.37981 1.6898C8.71981 1.4298 9.1098 1.2998 9.5498 1.2998C9.9898 1.2998 10.3798 1.4298 10.7298 1.6898L17.5198 6.8498C17.7598 7.0298 17.9598 7.2598 18.0998 7.5398C18.2398 7.8198 18.3098 8.1098 18.3098 8.4198V19.6498C18.3098 19.8898 18.2198 20.0998 18.0298 20.2898C17.8398 20.4798 17.6298 20.5698 17.3898 20.5698H12.3598C12.0798 20.5698 11.8498 20.4798 11.6598 20.2898C11.4698 20.0998 11.3798 19.8698 11.3798 19.5898V13.5298C11.3798 13.1998 11.1098 12.9298 10.7798 12.9298H8.31981C7.98981 12.9298 7.7198 13.1998 7.7198 13.5298V19.5898C7.7198 19.8698 7.62981 20.0998 7.43981 20.2898C7.24981 20.4798 7.0198 20.5698 6.7398 20.5698H1.7198C1.4798 20.5698 1.2698 20.4798 1.0798 20.2898C0.889805 20.0998 0.799805 19.8898 0.799805 19.6498H0.809805Z" stroke="#A5A5A5" stroke-width="1.5" stroke-linecap="round" stroke-linejoin="round"/>
</svg>
