<svg width="27" height="26" viewBox="0 0 27 26" fill="none" xmlns="http://www.w3.org/2000/svg">
<path d="M5.49984 22L2.0555 25.4443C1.70728 25.7925 1.30539 25.8711 0.849837 25.68C0.394282 25.4886 0.166504 25.1472 0.166504 24.6556V2.88896C0.166504 2.28896 0.386837 1.76852 0.827504 1.32763C1.26839 0.88696 1.78884 0.666626 2.38884 0.666626H24.6108C25.2108 0.666626 25.7313 0.88696 26.1722 1.32763C26.6128 1.76852 26.8332 2.28896 26.8332 2.88896V19.7776C26.8332 20.3776 26.6128 20.8981 26.1722 21.339C25.7313 21.7796 25.2108 22 24.6108 22H5.49984ZM4.54417 19.7776H24.6108V2.88896H2.38884V22.0556L4.54417 19.7776ZM7.8555 12.6C8.23328 12.6 8.54995 12.4722 8.8055 12.2166C9.06106 11.9611 9.18884 11.6444 9.18884 11.2666C9.18884 10.8888 9.06106 10.5722 8.8055 10.3166C8.54995 10.0611 8.23328 9.93329 7.8555 9.93329C7.47773 9.93329 7.16106 10.0611 6.9055 10.3166C6.64995 10.5722 6.52217 10.8888 6.52217 11.2666C6.52217 11.6444 6.64995 11.9611 6.9055 12.2166C7.16106 12.4722 7.47773 12.6 7.8555 12.6ZM13.5665 12.6C13.9443 12.6 14.2609 12.4722 14.5165 12.2166C14.7721 11.9611 14.8998 11.6444 14.8998 11.2666C14.8998 10.8888 14.7721 10.5722 14.5165 10.3166C14.2609 10.0611 13.9443 9.93329 13.5665 9.93329C13.1887 9.93329 12.8721 10.0611 12.6165 10.3166C12.3609 10.5722 12.2332 10.8888 12.2332 11.2666C12.2332 11.6444 12.3609 11.9611 12.6165 12.2166C12.8721 12.4722 13.1887 12.6 13.5665 12.6ZM19.1222 12.6C19.4999 12.6 19.8166 12.4722 20.0722 12.2166C20.3277 11.9611 20.4555 11.6444 20.4555 11.2666C20.4555 10.8888 20.3277 10.5722 20.0722 10.3166C19.8166 10.0611 19.4999 9.93329 19.1222 9.93329C18.7444 9.93329 18.4277 10.0611 18.1722 10.3166C17.9166 10.5722 17.7888 10.8888 17.7888 11.2666C17.7888 11.6444 17.9166 11.9611 18.1722 12.2166C18.4277 12.4722 18.7444 12.6 19.1222 12.6Z" fill="#5E5E5E"/>
</svg>
