<svg width="27" height="28" viewBox="0 0 27 28" fill="none" xmlns="http://www.w3.org/2000/svg">
<path d="M20.5888 17.3443C20.3368 17.1665 20.1886 16.9276 20.1441 16.6276C20.0997 16.3276 20.1664 16.0517 20.3441 15.8C20.5575 15.4691 20.7326 15.1156 20.8695 14.7396C21.0066 14.3636 21.1056 13.9801 21.1665 13.589C21.2258 13.2703 21.3622 13.0036 21.5758 12.789C21.7896 12.5741 22.0545 12.4666 22.3705 12.4666C22.6862 12.4666 22.9479 12.5783 23.1555 12.8016C23.3628 13.025 23.4442 13.2947 23.3998 13.611C23.3182 14.229 23.1757 14.8335 22.9721 15.4246C22.7684 16.0155 22.4887 16.5703 22.1331 17.089C21.9554 17.3407 21.7169 17.4907 21.4178 17.539C21.1187 17.587 20.8424 17.5221 20.5888 17.3443ZM14.1428 0.666626C15.1364 0.666626 15.9812 1.01451 16.6775 1.71029C17.3739 2.40585 17.7221 3.25052 17.7221 4.24429V11.3776C17.7221 11.7481 17.6068 12.0258 17.3761 12.211C17.1455 12.3963 16.8917 12.489 16.6148 12.489C16.3381 12.489 16.0831 12.3912 15.8498 12.1956C15.6165 12.0003 15.4998 11.7165 15.4998 11.3443V4.24429C15.4998 3.86029 15.3699 3.5384 15.1101 3.27863C14.8504 3.01885 14.5284 2.88896 14.1441 2.88896C13.7601 2.88896 13.4382 3.01885 13.1785 3.27863C12.9187 3.5384 12.7888 3.86029 12.7888 4.24429V6.42229C12.7888 6.79251 12.6735 7.07029 12.4428 7.25563C12.2121 7.44074 11.9584 7.53329 11.6815 7.53329C11.4048 7.53329 11.1498 7.43752 10.9165 7.24596C10.6831 7.0544 10.5665 6.77607 10.5665 6.41096V4.24429C10.5665 3.25052 10.9141 2.40585 11.6095 1.71029C12.305 1.01451 13.1495 0.666626 14.1428 0.666626ZM13.0331 24.889V21.611C10.9294 21.3592 9.11269 20.4981 7.58314 19.0276C6.05358 17.5574 5.15547 15.7518 4.8888 13.611C4.84436 13.2947 4.92647 13.025 5.13514 12.8016C5.34402 12.5783 5.60702 12.4666 5.92414 12.4666C6.24125 12.4666 6.5068 12.5752 6.7208 12.7923C6.9348 13.0096 7.06858 13.2788 7.12214 13.6C7.40347 15.326 8.21458 16.7352 9.55547 17.8276C10.8961 18.9203 12.4268 19.4666 14.1475 19.4666C14.9601 19.4666 15.7395 19.3364 16.4855 19.076C17.2317 18.8153 17.9106 18.4492 18.5221 17.9776L20.1108 19.5666C19.4368 20.1222 18.6905 20.5745 17.8718 20.9236C17.0529 21.2727 16.1808 21.5019 15.2555 21.611V24.889C15.2555 25.2036 15.1486 25.4675 14.9348 25.6806C14.721 25.8935 14.4562 26 14.1405 26C13.8245 26 13.5609 25.8935 13.3498 25.6806C13.1387 25.4675 13.0331 25.2036 13.0331 24.889ZM25.0331 27.4223L0.655469 3.04429C0.455469 2.84429 0.355469 2.59985 0.355469 2.31096C0.355469 2.02207 0.455469 1.77763 0.655469 1.57763C0.855469 1.37763 1.09991 1.27763 1.3888 1.27763C1.67769 1.27763 1.92214 1.37763 2.12214 1.57763L26.4998 25.9556C26.6998 26.1556 26.7998 26.4001 26.7998 26.689C26.7998 26.9778 26.6998 27.2223 26.4998 27.4223C26.2998 27.6223 26.0554 27.7223 25.7665 27.7223C25.4776 27.7223 25.2331 27.6223 25.0331 27.4223Z" fill="#5E5E5E"/>
</svg>
