<svg width="14" height="14" viewBox="0 0 14 14" fill="none" xmlns="http://www.w3.org/2000/svg">
<path d="M12.8961 13.9792C11.2155 13.8542 9.62176 13.441 8.11482 12.7396C6.60787 12.0382 5.25718 11.0903 4.06273 9.89583C2.86829 8.70139 1.92732 7.35417 1.23982 5.85417C0.552317 4.35417 0.139123 2.76389 0.000234061 1.08333C-0.0275437 0.791667 0.0577756 0.538194 0.256192 0.322917C0.454595 0.107639 0.702609 0 1.00023 0H3.83357C4.06968 0 4.27454 0.0729167 4.44815 0.21875C4.62176 0.364583 4.73635 0.548611 4.7919 0.770833L5.2919 2.97917C5.31968 3.15972 5.30926 3.33333 5.26065 3.5C5.21204 3.66667 5.13218 3.80556 5.02107 3.91667L3.00023 5.95833C3.27801 6.48611 3.59746 6.99306 3.95857 7.47917C4.31968 7.96528 4.72224 8.4235 5.16625 8.85383C5.58335 9.27072 6.02801 9.65625 6.50023 10.0104C6.97246 10.3646 7.47246 10.6806 8.00023 10.9583L10.0627 8.95833C10.1738 8.84722 10.3127 8.76736 10.4794 8.71875C10.6461 8.67014 10.8197 8.65972 11.0002 8.6875L13.2294 9.16667C13.4655 9.23611 13.653 9.35764 13.7919 9.53125C13.9308 9.70486 14.0002 9.90972 14.0002 10.1458V12.9792C14.0002 13.2768 13.8891 13.5248 13.6669 13.7232C13.4447 13.9216 13.1877 14.0069 12.8961 13.9792ZM2.31273 4.5L3.77107 3.04167L3.41357 1.5H1.5419C1.61135 2.02778 1.70857 2.53819 1.83357 3.03125C1.95857 3.52431 2.11829 4.01389 2.31273 4.5ZM9.4794 11.6667C9.9669 11.8645 10.4638 12.0216 10.97 12.138C11.4763 12.2543 11.9863 12.3472 12.5002 12.4167V10.5417L10.9377 10.2083L9.4794 11.6667Z" fill="white"/>
</svg>
