<svg width="11" height="5" viewBox="0 0 11 5" fill="none" xmlns="http://www.w3.org/2000/svg">
<path d="M2.6752 4.86248C2.11686 4.86248 1.64811 4.65623 1.26895 4.24373C0.889779 3.83123 0.700195 3.33539 0.700195 2.75623C0.700195 2.17706 0.904362 1.68331 1.3127 1.27498C1.72103 0.866642 2.21686 0.662476 2.8002 0.662476C3.38353 0.662476 3.87936 0.866642 4.2877 1.27498C4.69603 1.68331 4.9002 2.17914 4.9002 2.76248C4.9002 2.97848 4.86686 3.18648 4.8002 3.38648C4.73353 3.58648 4.64186 3.77848 4.5252 3.96248H6.4752C6.35853 3.77848 6.26686 3.58648 6.2002 3.38648C6.13353 3.18648 6.1002 2.97848 6.1002 2.76248C6.1002 2.17914 6.30436 1.68331 6.7127 1.27498C7.12103 0.866642 7.61686 0.662476 8.2002 0.662476C8.78353 0.662476 9.27936 0.866642 9.6877 1.27498C10.096 1.68331 10.3002 2.17914 10.3002 2.76248C10.3002 3.33748 10.1127 3.83123 9.7377 4.24373C9.3627 4.65623 8.89603 4.86248 8.3377 4.86248H2.6752ZM2.79738 3.96248C3.13259 3.96248 3.41686 3.84675 3.6502 3.61529C3.88353 3.38384 4.0002 3.1005 4.0002 2.76529C4.0002 2.43008 3.88447 2.14581 3.65301 1.91248C3.42156 1.67914 3.13822 1.56248 2.80301 1.56248C2.4678 1.56248 2.18353 1.67821 1.9502 1.90966C1.71686 2.14111 1.6002 2.42445 1.6002 2.75966C1.6002 3.09487 1.71592 3.37914 1.94738 3.61248C2.17883 3.84581 2.46217 3.96248 2.79738 3.96248ZM8.19738 3.96248C8.53259 3.96248 8.81686 3.84675 9.0502 3.61529C9.28353 3.38384 9.4002 3.1005 9.4002 2.76529C9.4002 2.43008 9.28447 2.14581 9.05301 1.91248C8.82156 1.67914 8.53822 1.56248 8.20301 1.56248C7.8678 1.56248 7.58353 1.67821 7.3502 1.90966C7.11686 2.14111 7.0002 2.42445 7.0002 2.75966C7.0002 3.09487 7.11592 3.37914 7.34738 3.61248C7.57883 3.84581 7.86217 3.96248 8.19738 3.96248Z" fill="#232323"/>
</svg>
