<svg width="25" height="24" viewBox="0 0 25 24" fill="none" xmlns="http://www.w3.org/2000/svg">
<path d="M22.2777 11.9667C22.2777 9.95933 21.7259 8.14633 20.6223 6.52767C19.5186 4.90922 18.063 3.72222 16.2557 2.96667C15.9668 2.84067 15.7593 2.64256 15.6333 2.37233C15.5073 2.10189 15.4999 1.82967 15.611 1.55567C15.7297 1.25922 15.939 1.05178 16.239 0.933334C16.539 0.814889 16.8446 0.818556 17.1557 0.944334C19.3703 1.87033 21.1481 3.32778 22.489 5.31667C23.8297 7.30556 24.5 9.52222 24.5 11.9667C24.5 14.4111 23.8297 16.6278 22.489 18.6167C21.1481 20.6056 19.3703 22.063 17.1557 22.989C16.8446 23.1148 16.539 23.1184 16.239 23C15.939 22.8816 15.7297 22.6741 15.611 22.3777C15.4999 22.1037 15.5073 21.8314 15.6333 21.561C15.7593 21.2908 15.9668 21.0927 16.2557 20.9667C18.063 20.2111 19.5186 19.0241 20.6223 17.4057C21.7259 15.787 22.2777 13.974 22.2777 11.9667ZM5.83333 16H1.611C1.29256 16 1.02778 15.8944 0.816667 15.6833C0.605556 15.4722 0.5 15.2074 0.5 14.889V9.111C0.5 8.79256 0.605556 8.52778 0.816667 8.31667C1.02778 8.10556 1.29256 8 1.611 8H5.83333L10.611 3.22233C10.9592 2.87411 11.3611 2.79444 11.8167 2.98333C12.2722 3.17222 12.5 3.51478 12.5 4.011V19.989C12.5 20.4852 12.2722 20.8278 11.8167 21.0167C11.3611 21.2056 10.9592 21.1259 10.611 20.7777L5.83333 16ZM18.5 12C18.5 13.0816 18.237 14.0723 17.711 14.9723C17.1852 15.8723 16.4593 16.5741 15.5333 17.0777C15.3407 17.1814 15.1573 17.1759 14.9833 17.061C14.8093 16.9463 14.7223 16.7852 14.7223 16.5777V7.37767C14.7223 7.17033 14.8093 7.00922 14.9833 6.89433C15.1573 6.77967 15.3407 6.77411 15.5333 6.87767C16.4593 7.38878 17.1852 8.10367 17.711 9.02233C18.237 9.94078 18.5 10.9333 18.5 12ZM10.2777 6.86667L6.811 10.2223H2.72233V13.7777H6.811L10.2777 17.1557V6.86667Z" fill="#5E5E5E"/>
</svg>
